<svg xmlns="http://www.w3.org/2000/svg" viewBox="0 0 3000 3000"><path fill="#00C7BA" d="M0 0h3000v3000H0z"/><path fill="#00A89D" d="M1656 271.9c9.8-16.4 15.5-35.6 15.5-56.2 0-60.6-49.1-109.7-109.7-109.7s-109.7 49.1-109.7 109.7c0 20.5 5.6 39.7 15.5 56.2h-779v2579.7H2435V271.9h-779zm-154.4-56.2c0-33.2 26.9-60.2 60.2-60.2 33.2 0 60.2 26.9 60.2 60.2 0 25.6-16 47.5-38.6 56.2h-43.2c-22.6-8.7-38.6-30.5-38.6-56.2z"/><path fill="#596D80" d="M1500 44.3c-60.6 0-109.7 49.1-109.7 109.7s49.1 109.7 109.7 109.7 109.7-49.1 109.7-109.7S1560.6 44.3 1500 44.3zm0 169.9c-33.2 0-60.2-26.9-60.2-60.2 0-33.2 26.9-60.2 60.2-60.2s60.2 26.9 60.2 60.2c0 33.2-27 60.2-60.2 60.2z"/><path fill="#641CBC" d="M626.8 210.2h1746.4v2579.7H626.8z"/><path fill="#F9FAFA" d="M687 283h1626v2434H687z"/><path fill="#D1D4D9" d="M944.3 946.3h-83.1c-22.7 0-41.2-18.5-41.2-41.2V822c0-22.7 18.5-41.2 41.2-41.2h83.1c22.7 0 41.2 18.5 41.2 41.2v83.1c-.1 22.8-18.5 41.2-41.2 41.2zm-83.1-147.4c-12.8 0-23.2 10.4-23.2 23.2v83.1c0 12.8 10.4 23.2 23.2 23.2h83.1c12.8 0 23.2-10.4 23.2-23.2v-83.1c0-12.8-10.4-23.2-23.2-23.2h-83.1zm83.1 414.5h-83.1c-22.7 0-41.2-18.5-41.2-41.2v-83.1c0-22.7 18.5-41.2 41.2-41.2h83.1c22.7 0 41.2 18.5 41.2 41.2v83.1c-.1 22.7-18.5 41.2-41.2 41.2zm-83.1-147.5c-12.8 0-23.2 10.4-23.2 23.2v83.1c0 12.8 10.4 23.2 23.2 23.2h83.1c12.8 0 23.2-10.4 23.2-23.2v-83.1c0-12.8-10.4-23.2-23.2-23.2h-83.1zm83.1 414.5h-83.1c-22.7 0-41.2-18.5-41.2-41.2v-83.1c0-22.7 18.5-41.2 41.2-41.2h83.1c22.7 0 41.2 18.5 41.2 41.2v83.1c-.1 22.7-18.5 41.2-41.2 41.2zM861.2 1333c-12.8 0-23.2 10.4-23.2 23.2v83.1c0 12.8 10.4 23.2 23.2 23.2h83.1c12.8 0 23.2-10.4 23.2-23.2v-83.1c0-12.8-10.4-23.2-23.2-23.2h-83.1zm83.1 414.4h-83.1c-22.7 0-41.2-18.5-41.2-41.2v-83.1c0-22.7 18.5-41.2 41.2-41.2h83.1c22.7 0 41.2 18.5 41.2 41.2v83.1c-.1 22.8-18.5 41.2-41.2 41.2zM861.2 1600c-12.8 0-23.2 10.4-23.2 23.2v83.1c0 12.8 10.4 23.2 23.2 23.2h83.1c12.8 0 23.2-10.4 23.2-23.2v-83.1c0-12.8-10.4-23.2-23.2-23.2h-83.1zm83.1 414.5h-83.1c-22.7 0-41.2-18.5-41.2-41.2v-83.1c0-22.7 18.5-41.2 41.2-41.2h83.1c22.7 0 41.2 18.5 41.2 41.2v83.1c-.1 22.7-18.5 41.2-41.2 41.2zM861.2 1867c-12.8 0-23.2 10.4-23.2 23.2v83.1c0 12.8 10.4 23.2 23.2 23.2h83.1c12.8 0 23.2-10.4 23.2-23.2v-83.1c0-12.8-10.4-23.2-23.2-23.2h-83.1zm83.1 414.5h-83.1c-22.7 0-41.2-18.5-41.2-41.2v-83.1c0-22.7 18.5-41.2 41.2-41.2h83.1c22.7 0 41.2 18.5 41.2 41.2v83.1c-.1 22.7-18.5 41.2-41.2 41.2zm-83.1-147.4c-12.8 0-23.2 10.4-23.2 23.2v83.1c0 12.8 10.4 23.2 23.2 23.2h83.1c12.8 0 23.2-10.4 23.2-23.2v-83.1c0-12.8-10.4-23.2-23.2-23.2h-83.1zm83.1 414.4h-83.1c-22.7 0-41.2-18.5-41.2-41.2v-83.1c0-22.7 18.5-41.2 41.2-41.2h83.1c22.7 0 41.2 18.5 41.2 41.2v83.1c-.1 22.7-18.5 41.2-41.2 41.2zm-83.1-147.4c-12.8 0-23.2 10.4-23.2 23.2v83.1c0 12.8 10.4 23.2 23.2 23.2h83.1c12.8 0 23.2-10.4 23.2-23.2v-83.1c0-12.8-10.4-23.2-23.2-23.2h-83.1z"/><path fill="#00C95C" d="M902.7 912.8h-.2c-4.3-.1-8.3-2.4-10.5-6.1L849 835c-3.6-5.9-1.6-13.6 4.3-17.1s13.6-1.6 17.1 4.3l32.8 54.6L1017 702.2c3.8-5.8 11.5-7.4 17.3-3.6 5.8 3.8 7.4 11.5 3.6 17.3L913.2 907.1c-2.3 3.5-6.3 5.7-10.5 5.7zm0 267h-.2c-4.3-.1-8.3-2.4-10.5-6.1l-43-71.7c-3.6-5.9-1.6-13.6 4.3-17.1s13.6-1.6 17.1 4.3l32.8 54.6L1017 969.2c3.8-5.8 11.5-7.4 17.3-3.6 5.8 3.8 7.4 11.5 3.6 17.3l-124.8 191.3c-2.2 3.5-6.2 5.6-10.4 5.6zm0 267h-.2c-4.3-.1-8.3-2.4-10.5-6.1l-43-71.7c-3.6-5.9-1.6-13.6 4.3-17.1s13.6-1.6 17.1 4.3l32.8 54.6 113.9-174.6c3.8-5.8 11.5-7.4 17.3-3.6s7.4 11.5 3.6 17.3l-124.8 191.3c-2.3 3.5-6.3 5.6-10.5 5.6zm0 534.1h-.2c-4.3-.1-8.3-2.4-10.5-6.1l-43-71.7c-3.6-5.9-1.6-13.6 4.3-17.1s13.6-1.6 17.1 4.3l32.8 54.6 113.9-174.6c3.8-5.8 11.5-7.4 17.3-3.6s7.4 11.5 3.6 17.3l-124.8 191.3c-2.3 3.4-6.3 5.6-10.5 5.6zm0 267h-.2c-4.3-.1-8.3-2.4-10.5-6.1l-43-71.7c-3.6-5.9-1.6-13.6 4.3-17.1s13.6-1.6 17.1 4.3l32.8 54.6 113.9-174.6c3.8-5.8 11.5-7.4 17.3-3.6s7.4 11.5 3.6 17.3l-124.8 191.3c-2.3 3.5-6.3 5.6-10.5 5.6z"/><path fill="#ED1C24" d="M916.3 2465.8l32.2-32.2c3.7-3.7 3.7-9.8 0-13.5-3.7-3.7-9.8-3.7-13.5 0l-32.2 32.2-32.2-32.2c-3.7-3.7-9.8-3.7-13.5 0-3.7 3.7-3.7 9.8 0 13.5l32.2 32.2L857 2498c-3.7 3.7-3.7 9.8 0 13.5 3.7 3.7 9.8 3.7 13.5 0l32.2-32.2 32.2 32.2c3.7 3.7 9.8 3.7 13.5 0 3.7-3.7 3.7-9.8 0-13.5l-32.1-32.2zm0-801.1l32.2-32.2c3.7-3.7 3.7-9.8 0-13.5-3.7-3.7-9.8-3.7-13.5 0l-32.2 32.2-32.2-32.2c-3.7-3.7-9.8-3.7-13.5 0-3.7 3.7-3.7 9.8 0 13.5l32.2 32.2-32.2 32.2c-3.7 3.7-3.7 9.8 0 13.5 3.7 3.7 9.8 3.7 13.5 0l32.2-32.2 32.2 32.2c3.7 3.7 9.8 3.7 13.5 0 3.7-3.7 3.7-9.8 0-13.5l-32.2-32.2z"/><g fill="#DBDEE3"><path d="M1082.4 829.4h1146.1V847H1082.4zm0 267.4h1146.1v17.6H1082.4zm0 267.4h1146.1v17.6H1082.4zm0 267.4h1146.1v17.6H1082.4zm0 267.4h1146.1v17.6H1082.4zm0 267.4h1146.1v17.6H1082.4zm0 267.3h1146.1v17.6H1082.4zM1082.4 879.6h900.5v17.6h-900.5zm0 267.4h900.5v17.6h-900.5zm0 267.4h900.5v17.6h-900.5zm0 267.4h900.5v17.6h-900.5zm0 267.4h900.5v17.6h-900.5zm0 267.4h900.5v17.6h-900.5zm0 267.4h900.5v17.6h-900.5z"/></g><path fill="#E6E7E8" d="M1272.2 170.3h455.7v225.4h-455.7z"/><path fill="#C5C6C7" d="M1272.2 362.7h455.7v33h-455.7z"/><path fill="#596D80" d="M1272.2 170.3h455.7v33h-455.7z"/><path d="M1311 219.3h378V230h-378zm0 29.3h378v10.7h-378zm0 29.4h378v10.7h-378zm0 29.3h378V318h-378zm0 29.3h378v10.7h-378z" fill="#D9DADB"/><path d="M2067.2 623.2H932.8c-3.1 0-5.6-2.5-5.6-5.6v-3.7c0-3.1 2.5-5.6 5.6-5.6h1134.5c3.1 0 5.6 2.5 5.6 5.6v3.7c0 3.1-2.5 5.6-5.7 5.6zm155.7-62.1H777.1c-3.1 0-5.6-2.5-5.6-5.6v-3.7c0-3.1 2.5-5.6 5.6-5.6h1445.8c3.1 0 5.6 2.5 5.6 5.6v3.7c0 3.1-2.5 5.6-5.6 5.6z" fill="#DBDEE3"/></svg>