<?xml version="1.0" encoding="utf-8"?>
<!-- Generator: Adobe Illustrator 18.1.1, SVG Export Plug-In . SVG Version: 6.00 Build 0)  -->
<svg version="1.1" id="Layer_1" xmlns="http://www.w3.org/2000/svg" xmlns:xlink="http://www.w3.org/1999/xlink" x="0px" y="0px"
	 viewBox="0 0 3000 3000" enable-background="new 0 0 3000 3000" xml:space="preserve">
<g>
	<rect fill="#00C7BA" width="3000" height="3000"/>
	<path fill="#00A89D" d="M1656,271.9c9.8-16.4,15.5-35.6,15.5-56.2c0-60.6-49.1-109.7-109.7-109.7s-109.7,49.1-109.7,109.7
		c0,20.5,5.6,39.7,15.5,56.2h-779v2579.7H2435V271.9H1656z M1501.6,215.7c0-33.2,26.9-60.2,60.2-60.2c33.2,0,60.2,26.9,60.2,60.2
		c0,25.6-16,47.5-38.6,56.2h-43.2C1517.6,263.2,1501.6,241.4,1501.6,215.7z"/>
	<path fill="#596D80" d="M1500,44.3c-60.6,0-109.7,49.1-109.7,109.7s49.1,109.7,109.7,109.7s109.7-49.1,109.7-109.7
		S1560.6,44.3,1500,44.3z M1500,214.2c-33.2,0-60.2-26.9-60.2-60.2c0-33.2,26.9-60.2,60.2-60.2s60.2,26.9,60.2,60.2
		C1560.2,187.2,1533.2,214.2,1500,214.2z"/>
	<rect x="626.8" y="210.2" fill="#641CBC" width="1746.4" height="2579.7"/>
	<rect x="687" y="283" fill="#F9FAFA" width="1626" height="2434"/>
	<g>
		<g>
			<path fill="#D1D4D9" d="M944.3,946.3h-83.1c-22.7,0-41.2-18.5-41.2-41.2V822c0-22.7,18.5-41.2,41.2-41.2h83.1
				c22.7,0,41.2,18.5,41.2,41.2v83.1C985.4,927.9,967,946.3,944.3,946.3z M861.2,798.9c-12.8,0-23.2,10.4-23.2,23.2v83.1
				c0,12.8,10.4,23.2,23.2,23.2h83.1c12.8,0,23.2-10.4,23.2-23.2v-83.1c0-12.8-10.4-23.2-23.2-23.2H861.2z"/>
		</g>
		<g>
			<path fill="#D1D4D9" d="M944.3,1213.4h-83.1c-22.7,0-41.2-18.5-41.2-41.2v-83.1c0-22.7,18.5-41.2,41.2-41.2h83.1
				c22.7,0,41.2,18.5,41.2,41.2v83.1C985.4,1194.9,967,1213.4,944.3,1213.4z M861.2,1065.9c-12.8,0-23.2,10.4-23.2,23.2v83.1
				c0,12.8,10.4,23.2,23.2,23.2h83.1c12.8,0,23.2-10.4,23.2-23.2v-83.1c0-12.8-10.4-23.2-23.2-23.2H861.2z"/>
		</g>
		<g>
			<path fill="#D1D4D9" d="M944.3,1480.4h-83.1c-22.7,0-41.2-18.5-41.2-41.2v-83.1c0-22.7,18.5-41.2,41.2-41.2h83.1
				c22.7,0,41.2,18.5,41.2,41.2v83.1C985.4,1461.9,967,1480.4,944.3,1480.4z M861.2,1333c-12.8,0-23.2,10.4-23.2,23.2v83.1
				c0,12.8,10.4,23.2,23.2,23.2h83.1c12.8,0,23.2-10.4,23.2-23.2v-83.1c0-12.8-10.4-23.2-23.2-23.2H861.2z"/>
		</g>
		<g>
			<path fill="#D1D4D9" d="M944.3,1747.4h-83.1c-22.7,0-41.2-18.5-41.2-41.2v-83.1c0-22.7,18.5-41.2,41.2-41.2h83.1
				c22.7,0,41.2,18.5,41.2,41.2v83.1C985.4,1729,967,1747.4,944.3,1747.4z M861.2,1600c-12.8,0-23.2,10.4-23.2,23.2v83.1
				c0,12.8,10.4,23.2,23.2,23.2h83.1c12.8,0,23.2-10.4,23.2-23.2v-83.1c0-12.8-10.4-23.2-23.2-23.2H861.2z"/>
		</g>
		<g>
			<path fill="#D1D4D9" d="M944.3,2014.5h-83.1c-22.7,0-41.2-18.5-41.2-41.2v-83.1c0-22.7,18.5-41.2,41.2-41.2h83.1
				c22.7,0,41.2,18.5,41.2,41.2v83.1C985.4,1996,967,2014.5,944.3,2014.5z M861.2,1867c-12.8,0-23.2,10.4-23.2,23.2v83.1
				c0,12.8,10.4,23.2,23.2,23.2h83.1c12.8,0,23.2-10.4,23.2-23.2v-83.1c0-12.8-10.4-23.2-23.2-23.2H861.2z"/>
		</g>
		<g>
			<path fill="#D1D4D9" d="M944.3,2281.5h-83.1c-22.7,0-41.2-18.5-41.2-41.2v-83.1c0-22.7,18.5-41.2,41.2-41.2h83.1
				c22.7,0,41.2,18.5,41.2,41.2v83.1C985.4,2263,967,2281.5,944.3,2281.5z M861.2,2134.1c-12.8,0-23.2,10.4-23.2,23.2v83.1
				c0,12.8,10.4,23.2,23.2,23.2h83.1c12.8,0,23.2-10.4,23.2-23.2v-83.1c0-12.8-10.4-23.2-23.2-23.2H861.2z"/>
		</g>
		<g>
			<path fill="#D1D4D9" d="M944.3,2548.5h-83.1c-22.7,0-41.2-18.5-41.2-41.2v-83.1c0-22.7,18.5-41.2,41.2-41.2h83.1
				c22.7,0,41.2,18.5,41.2,41.2v83.1C985.4,2530,967,2548.5,944.3,2548.5z M861.2,2401.1c-12.8,0-23.2,10.4-23.2,23.2v83.1
				c0,12.8,10.4,23.2,23.2,23.2h83.1c12.8,0,23.2-10.4,23.2-23.2v-83.1c0-12.8-10.4-23.2-23.2-23.2H861.2z"/>
		</g>
	</g>
	<g>
		<path fill="#00C95C" d="M902.7,912.8c-0.1,0-0.2,0-0.2,0c-4.3-0.1-8.3-2.4-10.5-6.1L849,835c-3.6-5.9-1.6-13.6,4.3-17.1
			s13.6-1.6,17.1,4.3l32.8,54.6L1017,702.2c3.8-5.8,11.5-7.4,17.3-3.6c5.8,3.8,7.4,11.5,3.6,17.3L913.2,907.1
			C910.9,910.6,906.9,912.8,902.7,912.8z"/>
	</g>
	<g>
		<path fill="#00C95C" d="M902.7,1179.8c-0.1,0-0.2,0-0.2,0c-4.3-0.1-8.3-2.4-10.5-6.1l-43-71.7c-3.6-5.9-1.6-13.6,4.3-17.1
			s13.6-1.6,17.1,4.3l32.8,54.6L1017,969.2c3.8-5.8,11.5-7.4,17.3-3.6c5.8,3.8,7.4,11.5,3.6,17.3l-124.8,191.3
			C910.9,1177.7,906.9,1179.8,902.7,1179.8z"/>
	</g>
	<g>
		<path fill="#00C95C" d="M902.7,1446.8c-0.1,0-0.2,0-0.2,0c-4.3-0.1-8.3-2.4-10.5-6.1l-43-71.7c-3.6-5.9-1.6-13.6,4.3-17.1
			s13.6-1.6,17.1,4.3l32.8,54.6l113.9-174.6c3.8-5.8,11.5-7.4,17.3-3.6s7.4,11.5,3.6,17.3l-124.8,191.3
			C910.9,1444.7,906.9,1446.8,902.7,1446.8z"/>
	</g>
	<g>
		<path fill="#00C95C" d="M902.7,1980.9c-0.1,0-0.2,0-0.2,0c-4.3-0.1-8.3-2.4-10.5-6.1l-43-71.7c-3.6-5.9-1.6-13.6,4.3-17.1
			s13.6-1.6,17.1,4.3l32.8,54.6l113.9-174.6c3.8-5.8,11.5-7.4,17.3-3.6s7.4,11.5,3.6,17.3l-124.8,191.3
			C910.9,1978.7,906.9,1980.9,902.7,1980.9z"/>
	</g>
	<g>
		<path fill="#00C95C" d="M902.7,2247.9c-0.1,0-0.2,0-0.2,0c-4.3-0.1-8.3-2.4-10.5-6.1l-43-71.7c-3.6-5.9-1.6-13.6,4.3-17.1
			s13.6-1.6,17.1,4.3l32.8,54.6l113.9-174.6c3.8-5.8,11.5-7.4,17.3-3.6s7.4,11.5,3.6,17.3l-124.8,191.3
			C910.9,2245.8,906.9,2247.9,902.7,2247.9z"/>
	</g>
	<path fill="#ED1C24" d="M916.3,2465.8l32.2-32.2c3.7-3.7,3.7-9.8,0-13.5l0,0c-3.7-3.7-9.8-3.7-13.5,0l-32.2,32.2l-32.2-32.2
		c-3.7-3.7-9.8-3.7-13.5,0l0,0c-3.7,3.7-3.7,9.8,0,13.5l32.2,32.2L857,2498c-3.7,3.7-3.7,9.8,0,13.5l0,0c3.7,3.7,9.8,3.7,13.5,0
		l32.2-32.2l32.2,32.2c3.7,3.7,9.8,3.7,13.5,0l0,0c3.7-3.7,3.7-9.8,0-13.5L916.3,2465.8z"/>
	<path fill="#ED1C24" d="M916.3,1664.7l32.2-32.2c3.7-3.7,3.7-9.8,0-13.5l0,0c-3.7-3.7-9.8-3.7-13.5,0l-32.2,32.2l-32.2-32.2
		c-3.7-3.7-9.8-3.7-13.5,0l0,0c-3.7,3.7-3.7,9.8,0,13.5l32.2,32.2l-32.2,32.2c-3.7,3.7-3.7,9.8,0,13.5l0,0c3.7,3.7,9.8,3.7,13.5,0
		l32.2-32.2l32.2,32.2c3.7,3.7,9.8,3.7,13.5,0l0,0c3.7-3.7,3.7-9.8,0-13.5L916.3,1664.7z"/>
	<g>
		<g>
			<g>
				<rect x="1082.4" y="829.4" fill="#DBDEE3" width="1146.1" height="17.6"/>
				<rect x="1082.4" y="1096.8" fill="#DBDEE3" width="1146.1" height="17.6"/>
				<rect x="1082.4" y="1364.2" fill="#DBDEE3" width="1146.1" height="17.6"/>
				<rect x="1082.4" y="1631.6" fill="#DBDEE3" width="1146.1" height="17.6"/>
				<rect x="1082.4" y="1899" fill="#DBDEE3" width="1146.1" height="17.6"/>
				<rect x="1082.4" y="2166.4" fill="#DBDEE3" width="1146.1" height="17.6"/>
			</g>
			<rect x="1082.4" y="2433.7" fill="#DBDEE3" width="1146.1" height="17.6"/>
		</g>
		<g>
			<rect x="1082.4" y="879.6" fill="#DBDEE3" width="900.5" height="17.6"/>
			<rect x="1082.4" y="1147" fill="#DBDEE3" width="900.5" height="17.6"/>
			<rect x="1082.4" y="1414.4" fill="#DBDEE3" width="900.5" height="17.6"/>
			<rect x="1082.4" y="1681.8" fill="#DBDEE3" width="900.5" height="17.6"/>
			<rect x="1082.4" y="1949.2" fill="#DBDEE3" width="900.5" height="17.6"/>
			<rect x="1082.4" y="2216.6" fill="#DBDEE3" width="900.5" height="17.6"/>
			<rect x="1082.4" y="2484" fill="#DBDEE3" width="900.5" height="17.6"/>
		</g>
	</g>
	<rect x="1272.2" y="170.3" fill="#E6E7E8" width="455.7" height="225.4"/>
	<rect x="1272.2" y="362.7" fill="#C5C6C7" width="455.7" height="33"/>
	<rect x="1272.2" y="170.3" fill="#596D80" width="455.7" height="33"/>
	<g>
		<rect x="1311" y="219.3" fill="#D9DADB" width="378" height="10.7"/>
		<rect x="1311" y="248.6" fill="#D9DADB" width="378" height="10.7"/>
		<rect x="1311" y="278" fill="#D9DADB" width="378" height="10.7"/>
		<rect x="1311" y="307.3" fill="#D9DADB" width="378" height="10.7"/>
		<rect x="1311" y="336.6" fill="#D9DADB" width="378" height="10.7"/>
	</g>
	<g>
		<path fill="#DBDEE3" d="M2067.2,623.2H932.8c-3.1,0-5.6-2.5-5.6-5.6v-3.7c0-3.1,2.5-5.6,5.6-5.6h1134.5c3.1,0,5.6,2.5,5.6,5.6v3.7
			C2072.9,620.7,2070.4,623.2,2067.2,623.2z"/>
		<path fill="#DBDEE3" d="M2222.9,561.1H777.1c-3.1,0-5.6-2.5-5.6-5.6v-3.7c0-3.1,2.5-5.6,5.6-5.6h1445.8c3.1,0,5.6,2.5,5.6,5.6v3.7
			C2228.5,558.6,2226,561.1,2222.9,561.1z"/>
	</g>
</g>
</svg>
