<svg xmlns="http://www.w3.org/2000/svg" width="1189.44" height="803.963"><path fill="#D0DCE5" d="M0 0h1189.44v803.963H0z"/><path fill="#D0DCE5" d="M652.642 66.124H501.008c-13.019 0-23.658 10.658-23.658 23.678v1.935c0 13.021 10.64 23.667 23.658 23.667h151.634c13.031 0 23.673-10.645 23.673-23.667v-1.935c0-13.02-10.642-23.678-23.673-23.678zm90.657 95.851H507.896c-13.548 0-24.654 11.084-24.654 24.637 0 13.55 11.105 24.651 24.654 24.651h235.403c13.569 0 24.636-11.101 24.636-24.651 0-13.553-11.067-24.637-24.636-24.637zm93.483 0h-37.946c-13.087 0-23.796 10.708-23.796 23.797v1.695c0 13.086 10.709 23.795 23.796 23.795h37.946c13.089 0 23.796-10.709 23.796-23.795v-1.695c0-13.089-10.707-23.797-23.796-23.797z"/><path fill="#D0DCE5" d="M625.003 114.077H505.789c12.008 0 21.826 9.816 21.826 21.825v5.617c0 12.012-9.817 21.845-21.826 21.845h119.214c-11.99 0-21.825-9.833-21.825-21.845v-5.617c0-12.008 9.835-21.825 21.825-21.825z"/><path fill="#4D4D4D" d="M815.012 628.658h90.013v13.555h-90.013zm49.32 32.434h116.847v13.564H864.332z"/><path fill="#FFF" d="M1092.375 222.428l49.201 16.294-60.226 64.177-227.621 89.53z"/><path fill="#50BFD8" d="M1079.52 231.592l-1.49-10.33-224.301 171.167z"/><path fill="#FFF" d="M1078.03 221.262l-53.604-12.983-78.027 50.577-92.67 133.573z"/><path fill="#50BFD8" d="M1080.529 303.019l17.577-17.602 4.486 37.134-248.863 69.878z"/><path fill="#B2E2EF" d="M687.656 199.963v82.109c38.24 2.655 68.555 34.618 68.495 73.521a73.494 73.494 0 01-4.283 24.619l5.467 1.711 73.324 21.303c4.825-14.988 7.54-30.959 7.563-47.552.084-84.314-66.882-152.975-150.566-155.711z"/><path fill="#FFF" d="M679.454 199.9c-41.681.827-79.233 18.003-106.712 45.401l58.777 57.228c12.549-12.088 29.347-19.793 47.935-20.558V199.9z"/><path fill="#F69070" d="M679.454 429.065c-39.227-1.641-70.606-34.048-70.586-73.634.041-17.831 6.42-34.195 17.02-46.929l-58.879-57.348c-24.942 27.58-40.13 64.087-40.188 104.178-.083 85.007 67.968 154.139 152.633 155.768v-82.035z"/><path fill="#FFDB77" d="M748.589 387.91c-11.305 22.941-34.157 39.191-60.933 41.044V511.1c64.19-2.089 118.542-43.033 140.305-100.109l-79.372-23.081z"/><path fill="#FFF" d="M144.269 98.547H546.31v531.667H144.269z"/><path fill="#B2E2EF" d="M144.269 555.998H546.31v4.85H144.269z"/><path fill="#FFDB77" d="M546.31 547.996H144.269v-78.388l27.397 24.718 38.984-15.015 28.141 8.62 52.398-58.072 45.461 29.154 23.917-21.212 37.135 16.659 64.285-50.199 35.748 16.324 48.575-50.789z"/><path fill="#B2E2EF" d="M546.31 547.996H144.269v-24.52l28.704-13.247 36.37-22.962 29.888 11.485 51.296-24.739 42.223 14.132 27.817-23.428 32.586 33.142 61.071-38.976 43.83-17.377 48.256 24.558z"/><path fill="#F69070" d="M546.31 547.996H144.269v-18.347l26.11 5.762 38.964-22.538 30.554-.453 48.056-17.67 46.745 23.877 22.268-39.316 36.187 29.136 61.715-15.889 42.867-21.203 48.575 12.956zM188.987 253.911h92.104v5.451h-92.104zm0-12.482h306.614v5.461H188.987zm0-12.48h306.614v5.462H188.987zm0-12.454h306.614v5.433H188.987zm0 168.929h193.265v5.451H188.987zm0-12.47h306.614v5.44H188.987zm0-12.474h306.614v5.451H188.987zm0-43.477h112.181v5.44H188.987zm0-12.483h306.614v5.462H188.987zm0-12.45h306.614v5.411H188.987z"/><path fill="#B2E2EF" d="M294.026 158.929h96.552v13.214h-96.552z"/><path fill="#F69070" d="M196.187 589.582h74.488v7.978h-74.488z"/><path fill="#FFDB77" d="M169.857 585.608h15.95v15.942h-15.95z"/><path fill="#F69070" d="M321.223 589.582h74.444v7.978h-74.444z"/><path fill="#B2E2EF" d="M294.872 585.608h15.933v15.942h-15.933z"/><path fill="#F69070" d="M445.231 589.313h74.506v7.985h-74.506zM418.92 585.339h15.934v15.941H418.92z"/><path fill="#FFF" d="M286.746 703.044v12.512c0 6.905 5.45 12.489 12.208 12.489h479.183c6.759 0 12.211-5.584 12.211-12.489v-12.512H286.746z"/><path fill="#686969" d="M767.053 703.044V438.67c0-14.686-11.646-26.633-26.005-26.633H336.066c-14.381 0-26.049 11.947-26.049 26.633v264.374"/><path fill="#E6E6E5" d="M332.728 437.277h411.636v245.327H332.728z"/><path fill="#FFF" d="M545.263 424.78c0 3.81-2.996 6.887-6.718 6.887-3.699 0-6.717-3.077-6.717-6.887 0-3.793 3.018-6.872 6.717-6.872 3.722 0 6.718 3.079 6.718 6.872z"/><path fill="#BBC0C4" d="M332.728 437.277h411.636v20.601H332.728z"/><path fill="#F69070" d="M352.36 447.58c0 3.097-2.453 5.631-5.489 5.631-3.041 0-5.513-2.534-5.513-5.631 0-3.116 2.472-5.649 5.513-5.649 3.036 0 5.489 2.533 5.489 5.649z"/><path fill="#FFDB77" d="M371.469 447.58c0 3.097-2.453 5.631-5.511 5.631-3.037 0-5.511-2.534-5.511-5.631 0-3.116 2.474-5.649 5.511-5.649 3.058 0 5.511 2.533 5.511 5.649z"/><path fill="#B2E2EF" d="M390.539 447.58c0 3.097-2.453 5.631-5.473 5.631-3.056 0-5.532-2.534-5.532-5.631 0-3.116 2.476-5.649 5.532-5.649 3.02 0 5.473 2.533 5.473 5.649z"/><g fill="#D0DCE5"><path d="M844.586 704.754H740.589c-9.419 0-17.125-7.709-17.125-17.118 0-9.42 7.706-17.126 17.125-17.126h103.997c9.418 0 17.116 7.706 17.116 17.126 0 9.409-7.698 17.118-17.116 17.118zm68.386 66.596H732.488c-9.412 0-17.117-7.707-17.117-17.127 0-9.413 7.705-17.122 17.117-17.122h180.483c9.421 0 17.118 7.709 17.118 17.122.001 9.42-7.696 17.127-17.117 17.127z"/><path d="M810.013 722.893v-3.896c0-8.348 6.826-15.173 15.169-15.173h-82.833c8.345 0 15.17 6.825 15.17 15.173v3.896c0 8.349-6.825 15.175-15.17 15.175h82.833c-8.343-.001-15.169-6.827-15.169-15.175z"/></g><path fill="#333" d="M731.15 447.58l3.982-4.103c.582-.564.582-1.521 0-2.125-.563-.581-1.51-.581-2.093 0l-3.982 4.095-3.981-4.095a1.475 1.475 0 00-2.093 0c-.583.604-.583 1.561 0 2.125l4.001 4.103-4.001 4.081c-.583.573-.583 1.55 0 2.135a1.435 1.435 0 002.093 0l3.981-4.082 3.982 4.082a1.435 1.435 0 002.093 0c.582-.585.582-1.562 0-2.135l-3.982-4.081z"/><path fill="#D9DEE6" d="M700.333 604.786c0 3.553-2.896 6.422-6.435 6.422H489.927a6.405 6.405 0 01-6.417-6.422V476.242a6.41 6.41 0 016.417-6.416h203.971c3.539 0 6.435 2.879 6.435 6.416v128.544z"/><path fill="#333" d="M700.333 604.786c0 3.553-2.896 6.422-6.435 6.422H489.927a6.405 6.405 0 01-6.417-6.422V476.242a6.41 6.41 0 016.417-6.416h203.971c3.539 0 6.435 2.879 6.435 6.416v128.544z"/><path fill="none" d="M489.927 469.826c-3.561 0-6.435 2.879-6.435 6.416v10.038l16.474-16.454h-10.039zm47.955 0l-54.39 54.391v14.223l68.633-68.614zm3.261 141.382l141.386-141.382h-14.24L526.898 611.208zm-29.31-141.382l-28.341 28.302v14.24l42.541-42.542zm144.609 0h-14.244L500.829 611.208h14.242zM619.37 611.208l80.963-80.954v-14.226l-95.185 95.18zm-52.162 0l133.125-133.092v-1.874c0-3.376-2.655-6.146-5.996-6.372L552.989 611.208h14.219zm104.322 0l28.803-28.777v-14.242l-43.028 43.019zm-55.398-141.382l-132.64 132.638v2.322c0 3.25 2.432 5.914 5.59 6.336l141.271-141.296h-14.221zm77.766 141.382c3.539 0 6.435-2.869 6.435-6.422v-10.509l-16.936 16.931h10.501zm-48.441 0l54.876-54.864v-14.223l-69.118 69.087zm-55.415-141.382l-106.55 106.562v14.209l120.79-120.771zm-26.07 0l-80.48 80.483v14.223l94.701-94.706zm29.33 141.382l107.031-107.024v-14.222L579.06 611.208z"/><path fill="#F69070" d="M499.966 469.826l-16.474 16.454v11.848l28.341-28.302z"/><path fill="#B2E2EF" d="M526.033 469.826l-42.541 42.542v11.849l54.39-54.391z"/><path fill="#F69070" d="M552.125 469.826l-68.633 68.614v11.869l80.48-80.483z"/><path fill="#B2E2EF" d="M578.193 469.826l-94.701 94.706v11.856l106.55-106.562z"/><path fill="#F69070" d="M604.282 469.826l-120.79 120.771v11.867l132.64-132.638z"/><path fill="#B2E2EF" d="M630.353 469.826l-141.27 141.296c.261.051.544.086.845.086h10.901l141.37-141.382h-11.846z"/><path fill="#F69070" d="M526.898 611.208l141.391-141.382h-11.847L515.071 611.208z"/><path fill="#B2E2EF" d="M552.989 611.208L694.338 469.87a3.073 3.073 0 00-.439-.044H682.53L541.143 611.208h11.846z"/><path fill="#F69070" d="M579.06 611.208l121.273-121.246v-11.846L567.208 611.208z"/><path fill="#B2E2EF" d="M605.148 611.208l95.185-95.18v-11.844L593.302 611.208z"/><path fill="#F69070" d="M631.215 611.208l69.118-69.087v-11.867l-80.963 80.954z"/><path fill="#B2E2EF" d="M657.305 611.208l43.028-43.019v-11.845l-54.876 54.864z"/><path fill="#F69070" d="M683.397 611.208l16.936-16.931v-11.846l-28.803 28.777z"/><path fill="#FFF" d="M492.764 478.171H691.06v124.687H492.764z"/><path fill="#BBC0C4" d="M505.921 489.962h51.032v22.406h-51.032z"/><path fill="#F3F3F3" d="M639.684 485.135h42.846v49.864h-42.846z"/><g><path fill="#FFF" d="M372.394 536.206h214.731v129.682H372.394z"/><path fill="#F3F3F3" d="M480.352 598.222l-107.958 67.666V536.206z"/><path fill="#F3F3F3" d="M479.187 598.222l107.938 67.666V536.206z"/><path fill="#BBC0C4" d="M480.211 617.915l-107.817-81.709h214.731z"/><path fill="#FFF" d="M480.151 597.075l-107.757-60.869h214.731z"/></g><g><path fill="#A3A3A2" d="M670.179 529.759c-31.723 0-61.533-12.339-83.979-34.758-46.287-46.314-46.287-121.645 0-167.953 22.446-22.426 52.256-34.758 83.979-34.758 31.703 0 61.53 12.332 83.942 34.758 22.431 22.449 34.776 52.26 34.776 83.96 0 31.733-12.346 61.536-34.776 83.993-22.412 22.419-52.239 34.758-83.942 34.758zm0-206.441c-23.431 0-45.479 9.124-62.018 25.667-34.213 34.204-34.213 89.862 0 124.06 16.539 16.575 38.587 25.688 62.018 25.688 23.437 0 45.461-9.112 62.016-25.688 16.576-16.558 25.685-38.579 25.685-62.037 0-23.413-9.108-45.448-25.685-62.022-16.554-16.545-38.579-25.668-62.016-25.668z"/><path fill="#CCCBC9" d="M734.287 346.884c35.401 35.433 35.401 92.842 0 128.264-35.422 35.415-92.832 35.415-128.255 0-35.402-35.422-35.402-92.831 0-128.264 35.423-35.404 92.833-35.404 128.255 0z" opacity=".4"/><path fill="#333" d="M662.697 320.652c20.616 1.711 40.813 10.439 56.604 26.231 35.404 35.433 35.404 92.842 0 128.264-15.79 15.799-35.988 24.551-56.604 26.22 25.604 2.115 51.997-6.599 71.59-26.22 35.401-35.422 35.401-92.831 0-128.264-19.593-19.612-45.986-28.342-71.59-26.231z" opacity=".2"/><path fill="#FFF" d="M603.218 400.18a9.544 9.544 0 01-2.698-.396c-4.909-1.489-7.703-6.686-6.216-11.602a83.813 83.813 0 012.414-6.841c6.239-15.427 16.938-28.292 30.978-37.184 4.324-2.765 10.077-1.459 12.853 2.889 2.74 4.332 1.449 10.076-2.878 12.831-10.738 6.781-18.909 16.637-23.692 28.442-.683 1.73-1.328 3.461-1.851 5.242-1.207 4.01-4.909 6.619-8.91 6.619zm9.031 59.279c-3.02 0-5.955-1.44-7.746-4.115-6.518-9.669-10.922-20.878-12.673-32.404-.764-5.09 2.718-9.848 7.807-10.642 5.066-.745 9.816 2.747 10.598 7.823a61.024 61.024 0 009.719 24.825c2.856 4.264 1.729 10.057-2.535 12.932a9.277 9.277 0 01-5.17 1.581z"/><path fill="#A3A3A2" d="M880.221 642.997L732.195 495.001l21.926-21.956 148.026 148.027z"/></g><g><path fill="#333" d="M651.053 134.08h-82.174a3.08 3.08 0 01-3.095-3.106 3.08 3.08 0 013.095-3.089h82.174a3.086 3.086 0 013.114 3.089 3.086 3.086 0 01-3.114 3.106zm28.6-22.383h-13.274c-1.713 0-3.119-1.393-3.119-3.098a3.122 3.122 0 013.119-3.113h13.274c1.689 0 3.077 1.394 3.077 3.113 0 1.705-1.387 3.098-3.077 3.098zm15.814 51.586h-13.275a3.102 3.102 0 110-6.207h13.275a3.083 3.083 0 013.077 3.098c-.001 1.732-1.369 3.109-3.077 3.109zm-44.414-51.586h-50.031c-1.709 0-3.115-1.393-3.115-3.098a3.121 3.121 0 013.115-3.113h50.031a3.098 3.098 0 013.114 3.113 3.094 3.094 0 01-3.114 3.098zm74.623-22.76h-60.424c-1.709 0-3.119-1.394-3.119-3.098 0-1.715 1.409-3.109 3.119-3.109h60.424c1.689 0 3.097 1.394 3.097 3.109a3.117 3.117 0 01-3.097 3.098z"/></g><g><path fill="#333" d="M890.321 502.292h-82.216c-1.705 0-3.092-1.407-3.092-3.117a3.1 3.1 0 013.092-3.1h82.216a3.114 3.114 0 013.097 3.1c0 1.71-1.407 3.117-3.097 3.117zm28.54-22.397h-13.275c-1.69 0-3.097-1.377-3.097-3.087a3.113 3.113 0 013.097-3.117h13.275c1.729 0 3.096 1.385 3.096 3.117a3.076 3.076 0 01-3.096 3.087zm15.834 51.594h-13.281c-1.705 0-3.091-1.397-3.091-3.106a3.099 3.099 0 013.091-3.099h13.281a3.103 3.103 0 013.098 3.099 3.109 3.109 0 01-3.098 3.106zm-44.374-51.594H840.25a3.072 3.072 0 01-3.075-3.087c0-1.732 1.367-3.117 3.075-3.117h50.071a3.114 3.114 0 013.097 3.117c0 1.71-1.407 3.087-3.097 3.087zm74.565-22.762h-7.764a3.068 3.068 0 01-3.079-3.089c0-1.729 1.369-3.123 3.079-3.123h7.764c1.73 0 3.099 1.394 3.099 3.123a3.073 3.073 0 01-3.099 3.089zm-22.73 0h-14.945c-1.73 0-3.116-1.367-3.116-3.089a3.111 3.111 0 013.116-3.123h14.945c1.73 0 3.099 1.394 3.099 3.123a3.072 3.072 0 01-3.099 3.089zm-29.911 0h-7.764c-1.73 0-3.119-1.367-3.119-3.089a3.114 3.114 0 013.119-3.123h7.764c1.714 0 3.08 1.394 3.08 3.123a3.066 3.066 0 01-3.08 3.089zM887.403 255.499h-7.742a3.091 3.091 0 01-3.122-3.097 3.094 3.094 0 013.122-3.098h7.742a3.098 3.098 0 110 6.195zm-17.339 0h-9.574c-1.69 0-3.118-1.386-3.118-3.097 0-1.708 1.428-3.098 3.118-3.098h9.574c1.708 0 3.1 1.39 3.1 3.098a3.101 3.101 0 01-3.1 3.097zm-19.15 0h-7.767a3.098 3.098 0 010-6.195h7.767c1.712 0 3.117 1.39 3.117 3.098 0 1.71-1.405 3.097-3.117 3.097zM906.612 278.22h-38.459a3.096 3.096 0 01-3.099-3.109 3.107 3.107 0 013.099-3.097h38.459c1.71 0 3.118 1.398 3.118 3.097a3.112 3.112 0 01-3.118 3.109z"/></g><g><path fill="#333" d="M365.958 69.756h-7.743c-1.712 0-3.118-1.393-3.118-3.104 0-1.713 1.406-3.097 3.118-3.097h7.743c1.708 0 3.121 1.384 3.121 3.097 0 1.711-1.412 3.104-3.121 3.104zm19.149 0h-9.595c-1.707 0-3.076-1.393-3.076-3.104a3.08 3.08 0 013.076-3.097h9.595a3.102 3.102 0 010 6.201zm17.32 0h-7.766a3.102 3.102 0 010-6.201h7.766c1.71 0 3.117 1.384 3.117 3.097 0 1.711-1.407 3.104-3.117 3.104z"/></g><g><path fill="#333" d="M377.424 47.042h-38.461a3.109 3.109 0 01-3.099-3.108c0-1.705 1.409-3.087 3.099-3.087h38.461c1.73 0 3.117 1.382 3.117 3.087a3.098 3.098 0 01-3.117 3.108z"/></g><g><path fill="#333" d="M234.647 678.22h-38.46a3.108 3.108 0 01-3.099-3.106c0-1.7 1.389-3.109 3.099-3.109h38.46c1.708 0 3.116 1.409 3.116 3.109 0 1.707-1.408 3.106-3.116 3.106zm11.909-18.434h-38.459c-1.69 0-3.098-1.401-3.098-3.109 0-1.712 1.408-3.087 3.098-3.087h38.459a3.09 3.09 0 013.097 3.087c0 1.708-1.391 3.109-3.097 3.109z"/></g><g fill="#D0DCE5"><path d="M150.827 581.429H87.433c-5.444 0-9.892 4.455-9.892 9.896v.812c0 5.445 4.448 9.89 9.892 9.89h63.394c5.451 0 9.898-4.444 9.898-9.89v-.812c0-5.441-4.447-9.896-9.898-9.896zm37.902 40.073H90.313c-5.665 0-10.308 4.635-10.308 10.301 0 5.663 4.643 10.305 10.308 10.305h98.417c5.673 0 10.3-4.642 10.3-10.305-.001-5.666-4.628-10.301-10.301-10.301zm39.086 0H211.95c-5.473 0-9.949 4.475-9.949 9.947v.708c0 5.474 4.476 9.95 9.949 9.95h15.865c5.471 0 9.947-4.477 9.947-9.95v-.708c.001-5.472-4.476-9.947-9.947-9.947z"/><path d="M139.274 601.474H89.431c5.021 0 9.125 4.105 9.125 9.128v2.35c0 5.021-4.104 9.131-9.125 9.131h49.843c-5.015 0-9.125-4.11-9.125-9.131v-2.35c-.001-5.023 4.11-9.128 9.125-9.128z"/></g><g><path fill-rule="evenodd" clip-rule="evenodd" fill="#333237" d="M797.588 521.365h60.736c11.771 0 21.396 9.633 21.396 21.394V704.02c0 11.763-9.625 21.384-21.396 21.384h-60.736c-11.767 0-21.386-9.621-21.386-21.384V542.759c0-11.761 9.619-21.394 21.386-21.394z"/><path fill-rule="evenodd" clip-rule="evenodd" fill="#FFF" d="M785.606 538.483h84.703c.162 0 .302.13.302.303v167.498c0 .164-.14.298-.302.298h-84.703a.3.3 0 01-.301-.298V538.786a.3.3 0 01.301-.303zm42.352 182.448a5.24 5.24 0 005.229-5.229c0-2.884-2.349-5.229-5.229-5.229s-5.227 2.345-5.227 5.229a5.239 5.239 0 005.227 5.229z"/><g opacity=".5" fill-rule="evenodd" clip-rule="evenodd"><path fill="#333" d="M843.286 564.604c0 8.462-6.856 15.327-15.328 15.327-8.458 0-15.327-6.865-15.327-15.327 0-8.467 6.869-15.327 15.327-15.327 8.472 0 15.328 6.861 15.328 15.327z"/><path fill="#E1E5EB" d="M836.618 572.562v-.055a8.61 8.61 0 00-1.999-5.518c-1.883-.777-4.184-1.231-6.661-1.231s-4.77.454-6.661 1.231a8.609 8.609 0 00-1.997 5.518v.055h17.318zm-4.493-11.745a4.17 4.17 0 01-4.167 4.175 4.17 4.17 0 01-4.166-4.175 4.17 4.17 0 014.166-4.171 4.17 4.17 0 014.167 4.171z"/></g><path fill-rule="evenodd" clip-rule="evenodd" fill="#E1E5EB" d="M792.754 585.11h54.286v12.188h-54.286z"/><path fill-rule="evenodd" clip-rule="evenodd" fill="#FFF" d="M794.181 586.527h51.438v9.352h-51.438z"/><path fill-rule="evenodd" clip-rule="evenodd" fill="#E1E5EB" d="M847.991 585.11h15.171v12.188h-15.171z"/><path fill-rule="evenodd" clip-rule="evenodd" fill="#255DAB" d="M849.408 586.527h12.327v9.352h-12.327z"/><g fill="#FFF"><path d="M857.425 589.845a2.913 2.913 0 01-2.628 3.172 2.91 2.91 0 01-3.176-2.62 2.916 2.916 0 115.804-.552zm-4.666.44a1.769 1.769 0 001.929 1.596 1.773 1.773 0 001.597-1.932 1.774 1.774 0 00-1.936-1.594 1.776 1.776 0 00-1.59 1.93z"/><path d="M859.537 594.579a.542.542 0 01-.167.461.573.573 0 01-.813-.008l-2.6-2.646a.58.58 0 01.007-.808.574.574 0 01.816.001l2.598 2.646a.602.602 0 01.159.354z"/></g><path fill-rule="evenodd" clip-rule="evenodd" fill="#F69070" d="M811.013 629.194c6.196 0 11.252-5.055 11.252-11.244 0-6.2-5.056-11.253-11.252-11.253-6.199 0-11.247 5.053-11.247 11.253 0 6.19 5.047 11.244 11.247 11.244z"/><path fill-rule="evenodd" clip-rule="evenodd" fill="#CFCFCE" d="M818.033 615.028l-7.02 5.057-7.012-5.057 7.012-5.065z"/><path fill-rule="evenodd" clip-rule="evenodd" fill="#EAE9E8" d="M804.001 623.307h14.032v-8.279l-7.02 5.057-7.012-5.057z"/><path fill-rule="evenodd" clip-rule="evenodd" fill="#FFFDFA" d="M804.001 623.307h14.032l-5.745-4.141h-2.559z"/><path fill-rule="evenodd" clip-rule="evenodd" fill="#B2E2EF" d="M811.013 658.839c6.196 0 11.252-5.05 11.252-11.244 0-6.195-5.056-11.253-11.252-11.253-6.199 0-11.247 5.058-11.247 11.253 0 6.194 5.047 11.244 11.247 11.244z"/><path fill="#FFFDFA" d="M806.429 653.479a2.033 2.033 0 002.026-2.032v-7.529h6.527v3.749a2.033 2.033 0 00-2.789 1.884c0 1.117.912 2.034 2.033 2.034a2.042 2.042 0 002.029-2.034v-8.183h-9.076v8.195a2.054 2.054 0 00-.75-.149c-1.12 0-2.026.914-2.026 2.032a2.03 2.03 0 002.026 2.033z"/><path fill-rule="evenodd" clip-rule="evenodd" fill="#F69070" d="M811.013 688.491c6.196 0 11.252-5.058 11.252-11.252 0-6.196-5.056-11.245-11.252-11.245-6.199 0-11.247 5.049-11.247 11.245 0 6.195 5.047 11.252 11.247 11.252z"/><path fill="#FFF" d="M813.919 683.504a.678.678 0 01-.933 0l-.234-.242c-.248-.257-.757-.462-1.115-.462h-5.121c-.367 0-.762-.276-.884-.616l-2.169-6.015c-.28-.795.171-1.442 1.017-1.442h4.256c.188-.616.085-1.11-.095-1.385-.267-.391-.98-1.123-.844-2.22.042-.357.25-.917.47-1.208.642-.831 1.563-.631 1.563.106 0 .885-.472 1.766 1.19 2.855 1.662 1.088 2.799 3.225 2.799 3.234 0 .005.207.22.466.48l2.81 2.804a.676.676 0 010 .933l-3.176 3.178zm3.859-3.02l-3.758 3.762.868.86 3.761-3.762z"/><g><path fill-rule="evenodd" clip-rule="evenodd" fill="#FFDB77" d="M844.904 688.491c6.202 0 11.252-5.058 11.252-11.252 0-6.196-5.05-11.245-11.252-11.245-6.194 0-11.245 5.049-11.245 11.245 0 6.195 5.051 11.252 11.245 11.252z"/><path fill="#FFF" d="M851.693 680.477c.202-.658.31-1.337.31-2.036 0-3.904-3.187-7.096-7.099-7.118-3.911.022-7.09 3.214-7.09 7.118 0 .699.098 1.39.298 2.05a.302.302 0 00-.148.259v.383c0 .179.143.319.316.319h.783v.692c0 .815.956 1.473 2.145 1.486v-5.631c-1.039.013-1.898.515-2.099 1.183a1.025 1.025 0 00-.046.306v.943h-.783a.257.257 0 00-.168.06v-.528c0-.201.031-.394.087-.583.137-.438.416-.825.798-1.119v-.004c.1-3.179 2.714-5.741 5.907-5.757 3.217.016 5.838 2.603 5.917 5.802.423.351.693.79.785 1.292.022.125.039.246.039.369v.485a.533.533 0 00-.101-.017h-.847v-.943a.838.838 0 00-.021-.188c-.137-.723-1.009-1.267-2.086-1.301v5.624c1.17-.026 2.107-.675 2.107-1.479v-.692h.847c.17 0 .315-.141.315-.319v-.383a.3.3 0 00-.166-.273z"/><path fill-rule="evenodd" clip-rule="evenodd" fill="#2C7CB9" d="M844.904 606.697c-6.194 0-11.245 5.053-11.245 11.244 0 6.198 5.051 11.253 11.245 11.253 6.202 0 11.252-5.055 11.252-11.253 0-6.191-5.05-11.244-11.252-11.244z"/><path fill="#FFF" d="M850.16 618.643v-6.075c0-.437-.357-.8-.801-.8a.804.804 0 00-.797.8v6.075h1.598zm-1.597 2.027v2.651a.8.8 0 101.598 0v-2.651h-1.598zm1.876-.37h-2.162a.66.66 0 01-.66-.66c0-.366.295-.659.66-.659h2.162c.369 0 .667.293.667.659 0 .364-.297.66-.667.66zM845.728 615.056v-2.488c0-.437-.357-.8-.804-.8a.8.8 0 00-.792.8v2.488h1.596zm-1.596 2.033v6.232c0 .444.355.802.792.802a.8.8 0 00.804-.802v-6.232h-1.596zm1.882-.371h-2.171a.655.655 0 01-.65-.66c0-.364.294-.658.65-.658h2.171c.365 0 .659.294.659.658 0 .367-.294.66-.659.66zM841.243 617.112c0-.011.007-.023.007-.029v-4.516a.801.801 0 00-1.602 0v4.545h1.595zm-1.595 2.026v4.183a.8.8 0 00.808.802.798.798 0 00.794-.802v-4.161c0-.008-.007-.015-.007-.022h-1.595zm1.89-.373h-2.172a.662.662 0 010-1.322h2.172a.67.67 0 01.658.665.666.666 0 01-.658.657z"/><g fill-rule="evenodd" clip-rule="evenodd"><path fill="#FFDB77" d="M844.904 658.839c6.202 0 11.252-5.05 11.252-11.244 0-6.195-5.05-11.253-11.252-11.253-6.194 0-11.245 5.058-11.245 11.253 0 6.194 5.051 11.244 11.245 11.244z"/><path fill="#FFF" d="M844.904 638.628c-4.95 0-8.959 4.015-8.959 8.967 0 4.95 4.009 8.965 8.959 8.965a8.965 8.965 0 008.968-8.965 8.965 8.965 0 00-8.968-8.967zm0 16.644a7.68 7.68 0 11.002-15.358 7.68 7.68 0 01-.002 15.358z"/><path fill="#FFF" d="M844.904 643.01a4.587 4.587 0 00-4.576 4.585c0 2.521 2.055 4.584 4.576 4.584a4.593 4.593 0 004.583-4.584 4.588 4.588 0 00-4.583-4.585z"/></g></g><g><path fill-rule="evenodd" clip-rule="evenodd" fill="#CCCBC9" d="M831.455 534.665h-6.994a2.724 2.724 0 01-2.713-2.722 2.728 2.728 0 012.713-2.722h6.994c1.496 0 2.72 1.23 2.72 2.722a2.728 2.728 0 01-2.72 2.722z"/></g></g></svg>