<svg xmlns="http://www.w3.org/2000/svg" xmlns:xlink="http://www.w3.org/1999/xlink" width="338" height="98" viewBox="0 0 253.5 73.5" version="1.2"><defs><symbol overflow="visible" id="b"><path d="M28.031-18.25L21.875 0h-2.031L14.5-15.563 9.125 0h-2L.969-18.25h1.984L8.22-2.562l5.453-15.688h1.797l5.375 15.766 5.343-15.766zm0 0"/></symbol><symbol overflow="visible" id="c"><path d="M15.875-1.672V0H2.969v-18.25h12.515v1.672H4.906v6.484h9.438v1.64H4.906v6.782zm0 0"/></symbol><symbol overflow="visible" id="d"><path d="M8 .156a11.78 11.78 0 01-3.89-.64C2.866-.922 1.905-1.5 1.218-2.22l.765-1.484c.657.656 1.532 1.195 2.625 1.61A9.737 9.737 0 008-1.485c1.633 0 2.86-.297 3.672-.891.82-.602 1.234-1.383 1.234-2.344 0-.726-.226-1.312-.672-1.75-.437-.437-.98-.77-1.625-1-.636-.238-1.53-.492-2.687-.765C6.555-8.586 5.46-8.926 4.64-9.25a5.429 5.429 0 01-2.094-1.469c-.586-.656-.875-1.55-.875-2.687 0-.914.238-1.754.719-2.516.488-.758 1.238-1.363 2.25-1.812 1.007-.446 2.257-.672 3.75-.672 1.05 0 2.07.148 3.062.437 1 .282 1.867.672 2.61 1.172l-.657 1.547a9.03 9.03 0 00-2.453-1.14 9.207 9.207 0 00-2.562-.376c-1.594 0-2.797.309-3.61.922-.804.617-1.203 1.414-1.203 2.39 0 .731.219 1.321.656 1.767.446.437 1.004.777 1.672 1.015.664.23 1.567.485 2.703.766 1.332.324 2.41.648 3.235.969a5.324 5.324 0 012.11 1.468c.57.649.858 1.528.858 2.64a4.5 4.5 0 01-.75 2.532c-.492.75-1.25 1.352-2.28 1.797C10.757-.062 9.5.156 8 .156zm0 0"/></symbol><symbol overflow="visible" id="e"><path d="M6.516-16.578H.109v-1.672h14.75v1.672H8.453V0H6.516zm0 0"/></symbol><symbol overflow="visible" id="f"><path d="M15.438 0l-4.172-5.875c-.47.055-.954.078-1.454.078H4.907V0H2.97v-18.25h6.844c2.32 0 4.144.559 5.468 1.672 1.32 1.105 1.985 2.633 1.985 4.578 0 1.43-.368 2.637-1.094 3.625-.719.98-1.746 1.684-3.078 2.11L17.547 0zM9.75-7.438c1.813 0 3.191-.394 4.14-1.187.958-.8 1.438-1.926 1.438-3.375 0-1.477-.48-2.61-1.437-3.39-.95-.79-2.329-1.188-4.141-1.188H4.906v9.14zm0 0"/></symbol><symbol overflow="visible" id="g"><path d="M2.969-18.25h1.937V0H2.97zm0 0"/></symbol><symbol overflow="visible" id="h"><path d="M18.156-18.25L10.063 0H8.155L.078-18.25h2.094L9.156-2.406l7.031-15.844zm0 0"/></symbol><symbol overflow="visible" id="i"><path d="M14.422-4.875H4.25L2.062 0H.047L8.39-18.25h1.906L18.64 0h-2.032zm-.703-1.563L9.344-16.25l-4.39 9.813zm0 0"/></symbol><symbol overflow="visible" id="j"><path d="M2.969-18.25h1.937v16.578h10.219V0H2.969zm0 0"/></symbol><symbol overflow="visible" id="k"><path d="M9.234-6.313V0H7.328v-6.313L.031-18.25h2.063L8.344-8l6.265-10.25h1.922zm0 0"/></symbol><clipPath id="a"><path d="M.61 0h251.785v73.004H.609zm0 0"/></clipPath><clipPath id="l"><path d="M202.621 26H210v42.945h-7.379zm0 0"/></clipPath><clipPath id="m"><path d="M208 4.754h8V18h-8zm0 0"/></clipPath><clipPath id="n"><path d="M202.621 7H210v13h-7.379zm0 0"/></clipPath><clipPath id="o"><path d="M202.621 14H234v15h-31.379zm0 0"/></clipPath><clipPath id="p"><path d="M227 14h18.91v20H227zm0 0"/></clipPath><clipPath id="q"><path d="M239 33h6.91v35.945H239zm0 0"/></clipPath><clipPath id="r"><path d="M213 64h32.91v4.945H213zm0 0"/></clipPath></defs><g clip-path="url(#a)"><path fill="#3871c1" d="M0 0h253.5v73.5H0z"/></g><use xlink:href="#b" x="31.259" y="35.999" fill="#ffeecb"/><use xlink:href="#c" x="59.188" y="35.999" fill="#ffeecb"/><use xlink:href="#d" x="75.59" y="35.999" fill="#ffeecb"/><use xlink:href="#e" x="90.584" y="35.999" fill="#ffeecb"/><use xlink:href="#f" x="110.298" y="35.999" fill="#ffeecb"/><use xlink:href="#g" x="128.108" y="35.999" fill="#ffeecb"/><use xlink:href="#h" x="134.94" y="35.999" fill="#ffeecb"/><use xlink:href="#c" x="152.098" y="35.999" fill="#ffeecb"/><use xlink:href="#f" x="168.501" y="35.999" fill="#ffeecb"/><use xlink:href="#f" x="90.68" y="60.631" fill="#ffeecb"/><use xlink:href="#c" x="108.49" y="60.631" fill="#ffeecb"/><use xlink:href="#i" x="124.892" y="60.631" fill="#ffeecb"/><use xlink:href="#j" x="142.546" y="60.631" fill="#ffeecb"/><use xlink:href="#e" x="156.862" y="60.631" fill="#ffeecb"/><use xlink:href="#k" x="170.787" y="60.631" fill="#ffeecb"/><g clip-path="url(#l)"><path d="M202.61 68.871V26.945l6.792 3.563V68.87h-6.793" fill="#ffeecb"/></g><g clip-path="url(#m)"><path d="M208.234 14.45V4.827l6.79 3.422v8.809l-6.79-2.61" fill="#ccbea2"/></g><path d="M205.477 16.02V6.398l6.789 3.426v8.805l-6.79-2.61" fill="#e6d6b7"/><g clip-path="url(#n)"><path d="M202.61 16.648v-9.62l6.792 3.425v8.805l-6.793-2.61" fill="#ffeecb"/></g><g clip-path="url(#o)"><path d="M202.61 25.164l24.757-10.273 5.801 3.355-23.766 10.48-6.793-3.562" fill="#e6d6b7"/></g><g clip-path="url(#p)"><path d="M233.168 18.246l12.734 15.2h-6.367L227.367 14.89l5.801 3.355" fill="#ffeecb"/></g><g clip-path="url(#q)"><path d="M239.535 33.445v35.426h6.367V33.445h-6.367" fill="#e6d6b7"/></g><g clip-path="url(#r)"><path d="M213.75 68.871v-4.715h32.152v4.715H213.75" fill="#ffeecb"/></g><path d="M213.75 35.89v22.083h6.582v-19.29l12.836-4.472v23.762h2.973V30.3l-22.391 5.59" fill="#ffeecb"/></svg>